<mxfile host="Electron" agent="Mozilla/5.0 (Windows NT 10.0; Win64; x64) AppleWebKit/537.36 (KHTML, like Gecko) draw.io/24.7.17 Chrome/128.0.6613.36 Electron/32.0.1 Safari/537.36" version="24.7.17">
  <diagram name="Page-1" id="e7e014a7-5840-1c2e-5031-d8a46d1fe8dd">
    <mxGraphModel dx="1290" dy="621" grid="1" gridSize="10" guides="1" tooltips="1" connect="1" arrows="1" fold="1" page="1" pageScale="1" pageWidth="1169" pageHeight="826" background="none" math="0" shadow="0">
      <root>
        <mxCell id="0" />
        <mxCell id="1" parent="0" />
        <mxCell id="AxV4C9VpobN2QN3-yHXz-41" value="学生" style="shape=umlActor;verticalLabelPosition=bottom;verticalAlign=top;html=1;outlineConnect=0;" vertex="1" parent="1">
          <mxGeometry x="310" y="90" width="30" height="60" as="geometry" />
        </mxCell>
        <mxCell id="AxV4C9VpobN2QN3-yHXz-42" value="教务处" style="shape=umlActor;verticalLabelPosition=bottom;verticalAlign=top;html=1;outlineConnect=0;" vertex="1" parent="1">
          <mxGeometry x="720" y="150" width="30" height="60" as="geometry" />
        </mxCell>
        <mxCell id="AxV4C9VpobN2QN3-yHXz-43" value="教师" style="shape=umlActor;verticalLabelPosition=bottom;verticalAlign=top;html=1;outlineConnect=0;" vertex="1" parent="1">
          <mxGeometry x="310" y="340" width="30" height="60" as="geometry" />
        </mxCell>
        <mxCell id="AxV4C9VpobN2QN3-yHXz-44" value="" style="swimlane;startSize=0;" vertex="1" parent="1">
          <mxGeometry x="380" y="30" width="310" height="430" as="geometry" />
        </mxCell>
        <mxCell id="AxV4C9VpobN2QN3-yHXz-45" value="注册课程" style="ellipse;whiteSpace=wrap;html=1;" vertex="1" parent="AxV4C9VpobN2QN3-yHXz-44">
          <mxGeometry x="30" y="100" width="80" height="50" as="geometry" />
        </mxCell>
        <mxCell id="AxV4C9VpobN2QN3-yHXz-46" value="教务处登录" style="ellipse;whiteSpace=wrap;html=1;" vertex="1" parent="AxV4C9VpobN2QN3-yHXz-44">
          <mxGeometry x="200" y="100" width="90" height="50" as="geometry" />
        </mxCell>
        <mxCell id="AxV4C9VpobN2QN3-yHXz-47" value="教师登录" style="ellipse;whiteSpace=wrap;html=1;" vertex="1" parent="AxV4C9VpobN2QN3-yHXz-44">
          <mxGeometry x="30" y="310" width="80" height="40" as="geometry" />
        </mxCell>
        <mxCell id="AxV4C9VpobN2QN3-yHXz-48" value="查看课程安排" style="ellipse;whiteSpace=wrap;html=1;" vertex="1" parent="AxV4C9VpobN2QN3-yHXz-44">
          <mxGeometry x="30" y="170" width="80" height="50" as="geometry" />
        </mxCell>
        <mxCell id="AxV4C9VpobN2QN3-yHXz-56" value="学生登录" style="ellipse;whiteSpace=wrap;html=1;" vertex="1" parent="AxV4C9VpobN2QN3-yHXz-44">
          <mxGeometry x="30" y="30" width="80" height="50" as="geometry" />
        </mxCell>
        <mxCell id="AxV4C9VpobN2QN3-yHXz-57" value="查看班级列表" style="ellipse;whiteSpace=wrap;html=1;" vertex="1" parent="AxV4C9VpobN2QN3-yHXz-44">
          <mxGeometry x="30" y="363" width="80" height="40" as="geometry" />
        </mxCell>
        <mxCell id="AxV4C9VpobN2QN3-yHXz-58" value="新增课程信息" style="ellipse;whiteSpace=wrap;html=1;" vertex="1" parent="AxV4C9VpobN2QN3-yHXz-44">
          <mxGeometry x="200" y="180" width="90" height="50" as="geometry" />
        </mxCell>
        <mxCell id="AxV4C9VpobN2QN3-yHXz-62" value="&lt;p class=&quot;MsoNormal&quot;&gt;&lt;span style=&quot;mso-spacerun:&#39;yes&#39;;font-family:宋体;mso-bidi-font-family:&#39;Times New Roman&#39;;&lt;br/&gt;font-size:12.0000pt;mso-font-kerning:1.0000pt;&quot;&gt;课程注册系统&lt;/span&gt;&lt;/p&gt;" style="text;html=1;align=center;verticalAlign=middle;whiteSpace=wrap;rounded=0;" vertex="1" parent="AxV4C9VpobN2QN3-yHXz-44">
          <mxGeometry x="120" y="10" width="90" height="30" as="geometry" />
        </mxCell>
        <mxCell id="AxV4C9VpobN2QN3-yHXz-67" value="" style="endArrow=classic;html=1;rounded=0;entryX=0;entryY=0.5;entryDx=0;entryDy=0;" edge="1" parent="AxV4C9VpobN2QN3-yHXz-44" target="AxV4C9VpobN2QN3-yHXz-47">
          <mxGeometry width="50" height="50" relative="1" as="geometry">
            <mxPoint x="-40" y="330" as="sourcePoint" />
            <mxPoint x="30" y="300" as="targetPoint" />
          </mxGeometry>
        </mxCell>
        <mxCell id="AxV4C9VpobN2QN3-yHXz-64" value="" style="endArrow=classic;html=1;rounded=0;entryX=0;entryY=0.5;entryDx=0;entryDy=0;" edge="1" parent="1" target="AxV4C9VpobN2QN3-yHXz-56">
          <mxGeometry width="50" height="50" relative="1" as="geometry">
            <mxPoint x="340" y="110" as="sourcePoint" />
            <mxPoint x="390" y="70" as="targetPoint" />
          </mxGeometry>
        </mxCell>
        <mxCell id="AxV4C9VpobN2QN3-yHXz-65" value="" style="endArrow=classic;html=1;rounded=0;entryX=0;entryY=0.5;entryDx=0;entryDy=0;exitX=1;exitY=0.3333333333333333;exitDx=0;exitDy=0;exitPerimeter=0;" edge="1" parent="1" source="AxV4C9VpobN2QN3-yHXz-41" target="AxV4C9VpobN2QN3-yHXz-45">
          <mxGeometry width="50" height="50" relative="1" as="geometry">
            <mxPoint x="350" y="120" as="sourcePoint" />
            <mxPoint x="420" y="95" as="targetPoint" />
          </mxGeometry>
        </mxCell>
        <mxCell id="AxV4C9VpobN2QN3-yHXz-66" value="" style="endArrow=classic;html=1;rounded=0;entryX=0;entryY=0.5;entryDx=0;entryDy=0;" edge="1" parent="1" target="AxV4C9VpobN2QN3-yHXz-48">
          <mxGeometry width="50" height="50" relative="1" as="geometry">
            <mxPoint x="340" y="110" as="sourcePoint" />
            <mxPoint x="420" y="165" as="targetPoint" />
          </mxGeometry>
        </mxCell>
        <mxCell id="AxV4C9VpobN2QN3-yHXz-68" value="" style="endArrow=classic;html=1;rounded=0;entryX=0;entryY=0.5;entryDx=0;entryDy=0;exitX=1;exitY=0.3333333333333333;exitDx=0;exitDy=0;exitPerimeter=0;" edge="1" parent="1" source="AxV4C9VpobN2QN3-yHXz-43" target="AxV4C9VpobN2QN3-yHXz-57">
          <mxGeometry width="50" height="50" relative="1" as="geometry">
            <mxPoint x="350" y="370" as="sourcePoint" />
            <mxPoint x="420" y="370" as="targetPoint" />
          </mxGeometry>
        </mxCell>
        <mxCell id="AxV4C9VpobN2QN3-yHXz-69" value="" style="endArrow=classic;html=1;rounded=0;entryX=1;entryY=0.5;entryDx=0;entryDy=0;exitX=0;exitY=0.3333333333333333;exitDx=0;exitDy=0;exitPerimeter=0;" edge="1" parent="1" source="AxV4C9VpobN2QN3-yHXz-42" target="AxV4C9VpobN2QN3-yHXz-46">
          <mxGeometry width="50" height="50" relative="1" as="geometry">
            <mxPoint x="690" y="249.5" as="sourcePoint" />
            <mxPoint x="760" y="249.5" as="targetPoint" />
          </mxGeometry>
        </mxCell>
        <mxCell id="AxV4C9VpobN2QN3-yHXz-70" value="" style="endArrow=classic;html=1;rounded=0;entryX=0.978;entryY=0.36;entryDx=0;entryDy=0;entryPerimeter=0;" edge="1" parent="1" target="AxV4C9VpobN2QN3-yHXz-58">
          <mxGeometry width="50" height="50" relative="1" as="geometry">
            <mxPoint x="720" y="170" as="sourcePoint" />
            <mxPoint x="690" y="165" as="targetPoint" />
          </mxGeometry>
        </mxCell>
        <mxCell id="AxV4C9VpobN2QN3-yHXz-71" style="edgeStyle=orthogonalEdgeStyle;rounded=0;orthogonalLoop=1;jettySize=auto;html=1;exitX=0.5;exitY=1;exitDx=0;exitDy=0;" edge="1" parent="1" source="AxV4C9VpobN2QN3-yHXz-44" target="AxV4C9VpobN2QN3-yHXz-44">
          <mxGeometry relative="1" as="geometry" />
        </mxCell>
      </root>
    </mxGraphModel>
  </diagram>
</mxfile>
